<?xml version="1.0" encoding="UTF-8" standalone="no"?>
<!DOCTYPE svg PUBLIC "-//W3C//DTD SVG 20010904//EN"
              "http://www.w3.org/TR/2001/REC-SVG-20010904/DTD/svg10.dtd">

<svg xmlns="http://www.w3.org/2000/svg"
     width="2.84444in" height="2.84444in"
     viewBox="0 0 256 256">
  <path id="Imported Path"
        fill="#eee" stroke-width="1"
        d="M 94.72,36.91
           C 89.36,33.80 83.13,32.02 76.48,32.02
             56.33,32.02 40.00,48.35 40.00,68.50
             40.00,68.63 40.00,68.77 40.00,68.91
             40.00,68.91 40.00,187.52 40.00,187.52
             40.00,187.52 40.00,187.52 40.00,187.52
             40.00,207.67 56.33,224.00 76.48,224.00
             83.12,223.99 89.35,222.21 94.72,219.10
             94.72,219.10 197.76,160.00 197.76,160.00
             208.65,153.69 215.97,141.92 215.97,128.43
             215.97,114.94 208.65,103.17 197.77,96.85
             197.77,96.85 94.72,36.91 94.72,36.91 Z" />
</svg>
